<svg xmlns="http://www.w3.org/2000/svg" viewBox="0 0 32 32">
  <rect width="32" height="32" rx="6" fill="#ffffff"/>
  <g transform="translate(3,2) scale(0.8)">
    <path d="M16 3C12 3 8 5.5 8 10c0 3.5 1 5.5 1.8 8.5s1.2 5 1.7 6.5c.6 1.2 1.8 2 3 2s2-1 2.5-3c.3-.8.5-2 .5-2s.2 1.2.5 2c.5 2 1 3 2.5 3s2.4-.8 3-2c.5-1.5 1-3.5 1.7-6.5S24 13.5 24 10c0-4.5-4-7-8-7z" stroke="#1B4B72" stroke-width="1.6" fill="none" stroke-linecap="round" stroke-linejoin="round"/>
    <path d="M11 11.5c0 0 2-1.8 5-1.8s5 1.8 5 1.8" stroke="#6FACC4" stroke-width="1" stroke-linecap="round" opacity="0.5"/>
    <text x="12.5" y="20" font-family="Georgia,serif" font-style="italic" font-size="9" font-weight="600" fill="#1B4B72">L</text>
  </g>
</svg>
